<?xml version="1.0" encoding="utf-8"?>
<!-- Generator: Adobe Illustrator 19.0.0, SVG Export Plug-In . SVG Version: 6.00 Build 0)  -->
<svg version="1.1" id="Artwork_1_" xmlns="http://www.w3.org/2000/svg" xmlns:xlink="http://www.w3.org/1999/xlink" x="0px" y="0px"
	 viewBox="0 0 1000 428" style="enable-background:new 0 0 1000 428;" xml:space="preserve">
<style type="text/css">
	.st0{fill:none;}
	.st1{fill:#E5C03E;}
	.st2{fill:#FFFDFF;}
	.st3{fill:#FFFFFF;}
</style>
<g id="Newsom_Sunburst_1_">
	<g id="Polygon_3_copy_xA0_Image_1_">
		<g>
			<path class="st0" d="M496.5,429c-101.8,0-203.7,0-305.5,0.1c-3.4,0-4.1-0.7-4.1-4.1c0.1-115.3,0.1-230.7,0-346
				c0-3.4,0.7-4.1,4.1-4.1c203.7,0.1,407.3,0.1,611,0c3.4,0,4.1,0.7,4.1,4.1c-0.1,115.3-0.1,230.7,0,346c0,3.4-0.7,4.1-4.1,4.1
				C700.2,429,598.3,429,496.5,429z M295.4,188.6c-0.3-0.5-0.6-1-1.3-0.8c0-0.8-0.3-1.2-1.2-0.8c0.2-0.9-0.2-1.2-1-1
				c0.5-0.9,0-1.5-0.9-1.8c-0.1,0-0.4,0.1-0.4,0.1c0,0.9,0.6,1.3,1.4,1.6c0.3,0.3,0.7,0.7,1,1c0.3,0.3,0.7,0.7,1,1
				c0.3,0.3,0.6,0.7,1,1c0.2,0.5,0.5,1,1,0.5C296.4,189.2,295.8,188.9,295.4,188.6z M722,193.1c-0.6,0-1,0.3-1,1
				c-0.9-0.1-1.6,0.1-2,1c-0.3,0.3-0.7,0.7-1,1c-2.3,0.9-4,2.6-5.4,4.5c-0.2,0.3-0.4,0.7-0.5,1c0.6,0.3,0.8-0.1,1-0.5
				c2-1.3,4.3-2.5,4.9-5.1c0.7,0.1,1.1-0.2,1-1c0.9,0.2,1.6-0.2,2-1C721.3,193.7,721.6,193.3,722,193.1c0.1-0.1,0.2-0.2,0.3-0.3
				c0.1-0.1,0-0.2,0.1-0.3C722.3,192.7,722.2,192.9,722,193.1z M265,215c-0.1-0.2-0.1-0.5-0.2-0.7c-0.2,0.1-0.3,0.2-0.5,0.3
				C264.5,214.7,264.8,214.9,265,215c0.4,0.9,1.1,1.2,2,1c0,2.1,1.9,2.6,3.1,3.5c32.5,25.7,65.2,51.1,97.5,77.1
				c5.4,4.3,10.5,4.4,17.3,3.6c-1.6-1.2-2.4-1.9-3.4-2.6c-26.5-19-53-38-79.6-56.9c-11.6-8.3-22.9-17.1-35-24.6
				C266.6,215.1,265.9,214.8,265,215z M321,158c-0.1-0.2-0.2-0.5-0.4-0.7c-0.1,0.2-0.2,0.3-0.3,0.5C320.6,157.9,320.8,157.9,321,158
				c-0.2,0.9,0.1,1.6,1,2c0.8,1.4,1.6,2.9,2.5,4.2c31.4,43,63,85.9,94,129.1c4.4,6.2,9.1,6.2,15.5,5.3c-1-1.4-1.6-2.3-2.3-3.2
				c-34.8-43.4-69.5-86.7-104.3-130c-1.6-2-2.5-4.7-5.4-5.4C322.3,159,321.9,158.4,321,158z M742,228c-1.3,0.7-2.7,1.2-4,2
				c-31.5,19.9-63,39.9-94.4,59.8c-5,3.1-9.9,6.3-15.4,9.8c6.7,1.3,11.9,0.8,17.2-3c29.5-21,59.4-41.6,89.1-62.5
				C737.2,232.3,740.5,231.2,742,228c0.4-0.1,0.9-0.2,1.3-0.3c-0.1-0.2-0.2-0.4-0.3-0.6C742.7,227.5,742.4,227.7,742,228z
				 M684.9,172.9c-1.1,1-2.2,2-3.2,3.1c-28.2,31.3-56.4,62.6-84.6,93.9c-8.2,9.1-16.4,18.3-24.8,27.6c6.4,1.3,11,1.3,15.6-4.5
				c25.1-31.3,50.9-62.1,76.3-93.2c7.1-8.7,14.9-17,21.2-26.5c0.8-0.4,1.4-0.8,1.4-1.8c0-0.1-0.2-0.4-0.3-0.4
				C685.6,171.5,685.2,172.1,684.9,172.9z M467.8,101.3c-0.4,0-0.8,0.1-1.3,0.1c1.9,23.2,3.9,46.3,5.8,69.5
				c2.5,29.9,5.1,59.7,7.7,89.6c1,11.8,1.9,23.6,3.1,35.3c0.6,5.7,5.2,2.4,7.9,2.9c2.8,0.6,2.5-1.5,2.2-3.6
				c-2.6-19.8-5.1-39.6-7.7-59.4c-4.5-34.6-9.1-69.3-13.7-103.9C470.6,121.6,469.2,111.5,467.8,101.3z M547.2,100.9
				c-0.3-0.1-0.6-0.1-0.9-0.2c-0.4,1.7-0.9,3.4-1.2,5.1c-7.3,38.2-14.5,76.5-21.8,114.7c-4.6,24.5-9.3,49-13.9,73.5
				c-0.3,1.4-1.1,3,0.3,4.2c2.7,2.4,9.4-0.2,9.9-3.8c2.5-17.3,4.9-34.6,7.4-51.9c5.2-36.2,10.4-72.5,15.6-108.7
				C544.1,122.8,545.6,111.8,547.2,100.9z M507.2,98.7c-0.2,0-0.5,0-0.7,0c-0.1,0.6-0.4,1.1-0.4,1.7c-1.4,26.9-2.7,53.9-4.1,80.8
				c-1.1,22.1-2.4,44.2-3.5,66.3c-0.8,15.8-1.5,31.6-2.4,47.4c-0.2,3.2,1,4.3,4,3.8c2.5-0.4,6.4,1.6,6.2-3.8
				c-0.2-4.8,0.2-9.6,0.3-14.5c0.3-58.8,0.5-117.6,0.8-176.4C507.2,102.3,507.2,100.5,507.2,98.7z M429.8,116
				c-0.3,0.5-0.5,0.6-0.5,0.8c10.9,48,21.7,96,32.6,144c2.6,11.7,5.2,23.4,8,35c1.3,5.7,6,2.6,9.1,2.7c3.3,0.1,1.1-2.8,0.8-4.1
				C463.9,236.3,448,178,432,119.8C431.7,118.4,431.8,116.8,429.8,116z M583.6,118.7c-0.4-0.1-0.9-0.2-1.3-0.3
				c-0.6,1.5-1.1,3-1.7,4.5c-11.2,33.3-22.4,66.5-33.6,99.8c-8,23.8-16,47.6-23.9,71.4c-0.4,1.3-2.4,3,0.1,4.2
				c4,1.9,9.2-0.5,10.4-4.7c14-48.9,28-97.9,42-146.8C578.3,137.5,580.9,128.1,583.6,118.7z M390.5,118.7c-1.3,1.3-0.5,2-0.2,2.7
				c17.5,46.9,35.1,93.7,52.6,140.6c4.2,11.2,8.4,22.4,12.6,33.6c1.2,3.1,6.4,5,10,3.1c3.1-1.7,0.1-4-0.6-5.7
				c-23.4-55.2-47-110.4-70.5-165.6C393.1,124.6,391.8,121.8,390.5,118.7z M621.3,126.5c-0.8,1.4-1.6,2.7-2.3,4.1
				c-26.8,54.2-53.6,108.3-80.4,162.5c-0.5,1-1.1,2.1-1.5,3.2c-0.3,0.9-0.1,1.5,1,1.9c3.8,1.5,9.1-0.4,10.7-4.1
				c22.6-51.3,45.2-102.6,67.8-154C618.5,135.7,620.9,131.5,621.3,126.5z M354.6,135.8c-0.4,0.3-0.7,0.5-1.1,0.8
				c0.5,0.9,1,1.7,1.5,2.6c27.3,50.7,54.6,101.4,82,152.1c4.7,8.8,4.7,8.8,15,7.1C419.4,244.1,387,189.9,354.6,135.8z M656.1,147.7
				c-0.4-0.2-0.7-0.5-1.1-0.7c-34,50.1-68.1,100.3-102.2,150.5c7.5,2,11.6-0.2,15.5-6.6c22.9-38.1,46.4-75.8,69.7-113.6
				C644,167.4,650,157.5,656.1,147.7z M299.7,192c0.2,3.6,1.9,4.5,3.1,5.7c31.4,32.6,63,65.1,94.3,98c4.6,4.9,9.2,4.5,15.7,3.4
				C375,263.3,337.8,228,299.7,192z M596.3,298.2c8.3,2.8,13.4-0.7,18.8-5.8c29.4-27.6,59.1-54.8,88.6-82.2c2.6-2.4,5.6-4.5,6.8-8.4
				C672.5,233.9,634.5,266,596.3,298.2z M241.9,246.8c-0.1,0.3-0.3,0.5-0.4,0.8c0.8,0.5,1.5,1.1,2.3,1.6
				c28.8,16.9,57.7,33.8,86.5,50.8c4.5,2.7,9,1.6,15.1,1.3C309.9,282.7,275.9,264.8,241.9,246.8z M758.3,263.9
				c-27.1,12.4-54.2,24.7-82.6,37.7c7,0.8,12,0.2,17.1-2.5c20.5-10.8,41.1-21.2,61.7-31.7C756,266.6,757.7,266.3,758.3,263.9z
				 M223,282.6c-0.1,0.3-0.2,0.6-0.4,1c15.2,6.3,30.4,12.6,45.5,18.8c3.2,1.3,6.5,1.6,10.7,0.4C259.6,295.8,241.3,289.2,223,282.6z
				 M772.6,300.6c0,0.5,0.1,1,0.1,1.4c3.1-1.1,6.2-2.2,9.4-3.3c-0.1-0.3-0.2-0.5-0.3-0.8C778.7,298.8,775.6,299.7,772.6,300.6z
				 M657.4,145.1c-0.3-0.1-0.6-0.3-0.7-0.2c-0.2,0.2-0.3,0.5-0.4,0.8c0.2,0.1,0.6,0.3,0.7,0.2C657.1,145.7,657.2,145.4,657.4,145.1z
				"/>
			<path class="st1" d="M467.8,101.3c1.4,10.2,2.7,20.3,4.1,30.5c4.6,34.6,9.1,69.3,13.7,103.9c2.6,19.8,5.1,39.6,7.7,59.4
				c0.3,2,0.6,4.1-2.2,3.6c-2.7-0.5-7.3,2.7-7.9-2.9c-1.2-11.8-2.1-23.5-3.1-35.3c-2.6-29.9-5.1-59.7-7.7-89.6
				c-2-23.2-3.9-46.3-5.8-69.5C467,101.4,467.4,101.3,467.8,101.3z"/>
			<path class="st1" d="M547.2,100.9c-1.5,11-3.1,22-4.7,32.9c-5.2,36.2-10.4,72.5-15.6,108.7c-2.5,17.3-4.9,34.6-7.4,51.9
				c-0.5,3.6-7.3,6.2-9.9,3.8c-1.4-1.2-0.5-2.8-0.3-4.2c4.6-24.5,9.3-49,13.9-73.5c7.3-38.2,14.5-76.5,21.8-114.7
				c0.3-1.7,0.8-3.4,1.2-5.1C546.6,100.7,546.9,100.8,547.2,100.9z"/>
			<path class="st1" d="M507.2,98.7c0,1.8,0,3.6,0,5.4c-0.2,58.8-0.5,117.6-0.8,176.4c0,4.8-0.4,9.7-0.3,14.5
				c0.2,5.4-3.7,3.3-6.2,3.8c-2.9,0.5-4.1-0.6-4-3.8c0.9-15.8,1.6-31.6,2.4-47.4c1.2-22.1,2.4-44.2,3.5-66.3
				c1.4-26.9,2.7-53.9,4.1-80.8c0-0.6,0.3-1.2,0.4-1.7C506.7,98.6,507,98.7,507.2,98.7z"/>
			<path class="st1" d="M429.8,116c1.9,0.8,1.8,2.4,2.2,3.8c15.9,58.2,31.9,116.5,47.7,174.7c0.3,1.3,2.5,4.2-0.8,4.1
				c-3-0.1-7.7,3-9.1-2.7c-2.7-11.7-5.3-23.3-8-35c-10.9-48-21.7-96-32.6-144C429.3,116.7,429.5,116.5,429.8,116z"/>
			<path class="st1" d="M583.6,118.7c-2.6,9.4-5.3,18.8-7.9,28.2c-14,48.9-28,97.9-42,146.8c-1.2,4.2-6.4,6.6-10.4,4.7
				c-2.5-1.2-0.5-3-0.1-4.2c7.9-23.8,15.9-47.6,23.9-71.4c11.2-33.3,22.4-66.5,33.6-99.8c0.5-1.5,1.1-3,1.7-4.5
				C582.7,118.5,583.1,118.6,583.6,118.7z"/>
			<path class="st1" d="M390.5,118.7c1.3,3,2.6,5.8,3.8,8.6c23.5,55.2,47.1,110.4,70.5,165.6c0.7,1.7,3.8,4,0.6,5.7
				c-3.6,1.9-8.9,0-10-3.1c-4.2-11.2-8.4-22.4-12.6-33.6c-17.5-46.9-35.1-93.7-52.6-140.6C390,120.8,389.2,120.1,390.5,118.7z"/>
			<path class="st1" d="M621.3,126.5c-0.4,5-2.8,9.2-4.8,13.5c-22.5,51.4-45.2,102.7-67.8,154c-1.6,3.7-6.9,5.6-10.7,4.1
				c-1-0.4-1.3-1-1-1.9c0.4-1.1,1-2.1,1.5-3.2c26.8-54.2,53.6-108.3,80.4-162.5C619.7,129.2,620.6,127.8,621.3,126.5z"/>
			<path class="st1" d="M354.6,135.8c32.4,54.1,64.8,108.2,97.3,162.5c-10.2,1.7-10.2,1.7-15-7.1c-27.3-50.7-54.6-101.4-82-152.1
				c-0.5-0.9-1-1.7-1.5-2.6C353.9,136.4,354.2,136.1,354.6,135.8z"/>
			<path class="st1" d="M656.1,147.7c-6.1,9.9-12.1,19.8-18.2,29.6c-23.3,37.8-46.7,75.5-69.7,113.6c-3.8,6.4-8,8.6-15.5,6.6
				C586.9,247.2,621,197.1,655,146.9C655.4,147.2,655.7,147.4,656.1,147.7z"/>
			<path class="st1" d="M322,160c2.9,0.7,3.8,3.4,5.4,5.4c34.8,43.3,69.6,86.7,104.3,130c0.7,0.9,1.3,1.8,2.3,3.2
				c-6.5,0.9-11.1,0.9-15.5-5.3c-31-43.2-62.6-86.1-94-129.1C323.6,162.9,322.8,161.4,322,160C322,160,322,160,322,160z"/>
			<path class="st1" d="M685.3,173.4c-6.3,9.4-14,17.7-21.2,26.5c-25.4,31.1-51.2,61.9-76.3,93.2c-4.6,5.7-9.2,5.8-15.6,4.5
				c8.4-9.4,16.6-18.5,24.8-27.6c28.2-31.3,56.4-62.6,84.6-93.9c1-1.1,2.2-2,3.2-3.1C685.1,173.1,685.2,173.3,685.3,173.4z"/>
			<path class="st1" d="M299.7,192c38.1,36.1,75.3,71.3,113.1,107.2c-6.5,1-11.1,1.4-15.7-3.4c-31.2-32.8-62.8-65.3-94.3-98
				C301.6,196.5,299.9,195.5,299.7,192z"/>
			<path class="st1" d="M596.3,298.2c38.2-32.2,76.2-64.3,114.1-96.3c-1.2,3.9-4.2,6-6.8,8.4c-29.5,27.4-59.2,54.6-88.6,82.2
				C609.7,297.5,604.6,301,596.3,298.2z"/>
			<path class="st1" d="M267,216c12.2,7.5,23.4,16.4,35,24.6c26.6,18.9,53,37.9,79.6,56.9c0.9,0.7,1.8,1.4,3.4,2.6
				c-6.8,0.8-11.9,0.8-17.3-3.6c-32.3-25.9-65-51.4-97.5-77.1C268.9,218.6,266.9,218.1,267,216L267,216z"/>
			<path class="st1" d="M741.9,227.9c-1.5,3.2-4.8,4.4-7.4,6.2c-29.7,20.9-59.5,41.4-89.1,62.5c-5.3,3.8-10.5,4.2-17.2,3
				c5.4-3.5,10.4-6.6,15.4-9.8c31.5-19.9,62.9-39.9,94.4-59.8C739.3,229.2,740.7,228.7,741.9,227.9L741.9,227.9z"/>
			<path class="st1" d="M241.9,246.8c34,17.9,68.1,35.9,103.5,54.5c-6.1,0.3-10.6,1.3-15.1-1.3c-28.8-17-57.7-33.9-86.5-50.8
				c-0.8-0.5-1.6-1.1-2.3-1.6C241.6,247.3,241.7,247.1,241.9,246.8z"/>
			<path class="st1" d="M758.3,263.9c-0.6,2.4-2.3,2.7-3.7,3.5c-20.6,10.6-41.3,20.9-61.7,31.7c-5.1,2.7-10.1,3.3-17.1,2.5
				C704,288.6,731.2,276.3,758.3,263.9z"/>
			<path class="st1" d="M223,282.6c18.3,6.6,36.7,13.2,55.9,20.2c-4.3,1.2-7.5,0.9-10.7-0.4c-15.2-6.3-30.4-12.6-45.5-18.8
				C222.8,283.2,222.9,282.9,223,282.6z"/>
			<path class="st1" d="M772.6,300.6c3.1-0.9,6.2-1.8,9.2-2.6c0.1,0.3,0.2,0.5,0.3,0.8c-3.1,1.1-6.2,2.2-9.4,3.3
				C772.7,301.6,772.6,301.1,772.6,300.6z"/>
			<path class="st1" d="M718,196c-0.6,2.7-2.8,3.8-4.9,5.1c-0.2-0.2-0.3-0.3-0.5-0.5C714,198.6,715.7,196.9,718,196L718,196z"/>
			<path class="st1" d="M657.4,145.1c-0.2,0.3-0.3,0.6-0.5,0.7c-0.1,0.1-0.4-0.1-0.7-0.2c0.1-0.3,0.2-0.6,0.4-0.8
				C656.8,144.8,657.1,145,657.4,145.1z"/>
			<path class="st1" d="M684.9,172.9c0.2-0.8,0.7-1.4,1.5-1.7c0.1,0,0.3,0.3,0.3,0.4c0,1-0.6,1.4-1.4,1.8
				C685.2,173.3,685.1,173.1,684.9,172.9z"/>
			<path class="st1" d="M292,186c-0.8-0.3-1.3-0.7-1.4-1.6c0,0,0.3-0.1,0.4-0.1C291.9,184.6,292.4,185.1,292,186
				C292,186,292,186,292,186z"/>
			<path class="st1" d="M321,158c1,0.3,1.3,1,1,2c0,0,0,0,0,0C321.1,159.6,320.8,158.9,321,158L321,158z"/>
			<path class="st1" d="M721,194c-0.5,0.8-1.1,1.2-2,1c0,0,0.1,0.1,0.1,0.1C719.4,194.2,720.1,193.9,721,194
				C721,194,721,194,721,194z"/>
			<path class="st1" d="M742,228c0.3-0.3,0.7-0.6,1-0.8c0.1,0.2,0.2,0.4,0.3,0.6C742.9,227.8,742.4,227.9,742,228
				C741.9,227.9,742,228,742,228z"/>
			<path class="st1" d="M267,216c-1,0.3-1.6-0.1-2-1L265,215C265.9,214.8,266.6,215.1,267,216C267,216,267,216,267,216z"/>
			<path class="st1" d="M321,157.9c-0.2,0-0.5-0.1-0.7-0.1c0.1-0.2,0.2-0.3,0.3-0.5C320.7,157.6,320.8,157.8,321,157.9
				C321,158,321,157.9,321,157.9z"/>
			<path class="st1" d="M265,215c-0.2-0.1-0.5-0.2-0.7-0.4c0.2-0.1,0.3-0.2,0.5-0.3C264.8,214.6,264.9,214.8,265,215
				C265,215,265,215,265,215z"/>
			<path class="st1" d="M293,187c-0.3-0.3-0.7-0.7-1-1c0,0-0.1,0.1-0.1,0.1C292.8,185.9,293.2,186.2,293,187
				C293,187,293,187,293,187z"/>
			<path class="st1" d="M713.1,201.1c-0.2,0.4-0.4,0.8-1,0.5c0.2-0.3,0.4-0.7,0.5-1C712.8,200.7,712.9,200.9,713.1,201.1z"/>
			<path class="st1" d="M718,196c0.3-0.3,0.7-0.7,1-1c0,0-0.1-0.1-0.1-0.1C719.1,195.7,718.7,196,718,196C718,196,718,196,718,196z"
				/>
			<path class="st1" d="M722,193c-0.3,0.3-0.7,0.7-1,1c0,0,0.1,0.1,0.1,0.1C721,193.3,721.4,193.1,722,193L722,193z"/>
			<path class="st1" d="M294,188c-0.3-0.3-0.7-0.7-1-1c0,0-0.1,0.1-0.1,0.1c0.8-0.4,1.1,0,1.2,0.8L294,188z"/>
			<path class="st1" d="M722,193.1c0.1-0.2,0.3-0.4,0.4-0.6c0,0.1,0,0.2-0.1,0.3C722.3,192.9,722.1,192.9,722,193.1
				C722,193,722,193.1,722,193.1z"/>
			<path class="st1" d="M295.4,188.6c0.4,0.2,0.9,0.5,0.5,1c-0.4,0.4-0.8-0.1-1-0.5C295.1,188.9,295.3,188.8,295.4,188.6z"/>
			<path class="st1" d="M294.1,187.9c0.7-0.2,1,0.3,1.3,0.8c-0.2,0.1-0.3,0.3-0.5,0.4c-0.3-0.3-0.6-0.7-1-1
				C294,188,294.1,187.9,294.1,187.9z"/>
		</g>
	</g>
	<g id="Shape_1">
		<g>
			<path class="st2" d="M500,289.2c-357,0-471,30-471,30s222.2-12.5,471-12.5s471,12.5,471,12.5S857,289.2,500,289.2z"/>
		</g>
	</g>
	<g id="NewSom">
		<g>
			<path class="st3" d="M193.1,150h-25.4c-1.3,0-2.2,0.9-2.2,2.2v96.3h-1.1l-53.9-96.3c-0.9-1.6-2.2-2.2-3.8-2.2h-27
				c-1.3,0-2.2,0.9-2.2,2.2v159.5c0,1.3,0.9,2.2,2.2,2.2l25.4-3c1.3,0,2.2-0.9,2.2-2.2V204.6h1.1l54.2,96.1c0.9,1.6,2,2.2,3.8,2.2
				h26.7c1.3,0,2.2-0.9,2.2-2.2V152.2C195.3,150.9,194.4,150,193.1,150z M314.5,150h-98c-1.3,0-2.2,0.9-2.2,2.2v148.5
				c0,1.3,0.9,2.2,2.2,2.2h98c1.3,0,2.2-0.9,2.2-2.2v-24.1c0-1.3-0.9-2.2-2.2-2.2h-65.8c-0.9,0-1.3-0.4-1.3-1.3v-31.7
				c0-0.9,0.4-1.3,1.3-1.3h54.8c1.3,0,2.2-0.9,2.2-2.2v-23.8c0-1.3-0.9-2.2-2.2-2.2h-54.8c-0.9,0-1.3-0.5-1.3-1.3v-30.4
				c0-0.9,0.4-1.3,1.3-1.3h65.8c1.3,0,2.2-0.9,2.2-2.2v-24.1C316.8,150.9,315.9,150,314.5,150z M510.9,150h-28.8
				c-1.6,0-2.5,0.7-2.7,2.2l-21.1,96.1h-0.4l-27-96.1c-0.4-1.3-1.3-2.2-2.7-2.2h-19.6c-1.6,0-2.5,0.9-2.9,2.2l-26.1,96.1h-0.4
				l-22-96.1c-0.2-1.3-1.1-2.2-2.7-2.2h-29c-1.6,0-2,0.9-1.8,2.2l39.6,148.5c0.4,1.3,1.3,2.2,2.7,2.2h22.5c1.6,0,2.5-0.9,2.9-2.2
				l26.7-95.2h0.4l26.5,95.2c0.4,1.3,1.3,2.2,2.9,2.2h22.5c1.6,0,2.7-0.9,2.9-2.2l39.3-148.5C512.9,150.9,512.5,150,510.9,150z
				 M582.1,210.9l-8.1-1.1c-17.5-2.5-23.8-8.1-23.8-16.9c0-9.7,7-16.6,20.5-16.6c12.6,0,23.8,4,35.5,11.7c1.1,0.7,2.2,0.5,3.1-0.7
				l13.7-20.5c1.1-1.6,0.9-2.5-0.4-3.4c-12.8-9.9-31.7-16-51.9-16c-33,0-54.2,18.7-54.2,46.8c0,27,17.3,41.6,48.3,45.9l8.1,1.1
				c18.2,2.5,23.6,8.1,23.6,17.1c0,10.8-9,18.2-24.9,18.2c-16.2,0-29.9-7.6-40-15.7c-1.1-0.9-2.5-0.9-3.4,0.2l-17.1,19.6
				c-1.1,1.3-0.7,2.9,0.2,3.8c11.9,11.5,35.1,20.9,58.9,20.9c39.6,0,60-20.5,60-48.1S613.6,215.2,582.1,210.9z M699.2,147.5
				c-26.7,0-47.9,12.4-55.7,37.1c-3.4,10.6-4.3,19.1-4.3,41.8c0,22.7,0.9,31.3,4.3,41.8c7.9,24.7,29,37.1,55.7,37.1
				s47.9-12.4,55.7-37.1c3.4-10.6,4.3-19.1,4.3-41.8c0-22.7-0.9-31.3-4.3-41.8C747.1,159.9,726,147.5,699.2,147.5z M723.3,259.3
				c-3.4,10.6-11.5,16.9-24,16.9c-12.6,0-20.7-6.3-24-16.9c-1.8-5.4-2.5-12.8-2.5-32.8s0.7-27.4,2.5-32.8
				c3.4-10.6,11.5-16.9,24-16.9c12.6,0,20.7,6.3,24,16.9c1.8,5.4,2.5,12.8,2.5,32.8S725.1,253.9,723.3,259.3z M913.9,150h-26.3
				c-1.8,0-2.9,0.7-3.6,2.2l-38,87.3h-0.9l-38.7-87.3c-0.7-1.6-1.8-2.2-3.6-2.2h-26.7c-1.3,0-2.2,0.9-2.2,2.2v148.5
				c0,1.3,0.9,2.2,2.2,2.2h25.4c1.3,0,2.2-0.9,2.2-2.2v-86.2h0.9l28.3,64.6c0.9,2,2.2,2.9,4.3,2.9h15.5c2,0,3.4-0.9,4.3-2.9
				l28.3-64.6h0.9v96.2c0,1.3,0.9,2.2,2.2,2.2l25.4,1c1.3,0,2.2-0.9,2.2-2.2V152.2C916.2,150.9,915.3,150,913.9,150z"/>
		</g>
	</g>
</g>
<g id="for_governor">
	<g>
		<path class="st3" d="M351,341.4h-20.6c-0.3,0-0.5,0.2-0.5,0.5v33.2c0,0.3,0.2,0.5,0.5,0.5h3.5c0.3,0,0.5-0.2,0.5-0.5v-14.1
			c0-0.2,0.1-0.3,0.3-0.3h13.8c0.3,0,0.5-0.2,0.5-0.5v-3.2c0-0.3-0.2-0.5-0.5-0.5h-13.8c-0.2,0-0.3-0.1-0.3-0.3v-10.4
			c0-0.2,0.1-0.3,0.3-0.3H351c0.3,0,0.5-0.2,0.5-0.5v-3.2C351.5,341.6,351.3,341.4,351,341.4z M369.1,340.8c-5.7,0-9.9,2.7-11.6,8
			c-0.7,2-0.9,4-0.9,9.7s0.3,7.7,0.9,9.7c1.8,5.3,5.9,8,11.6,8c5.8,0,9.9-2.7,11.7-8c0.7-2,0.9-4,0.9-9.7s-0.3-7.7-0.9-9.7
			C379.1,343.6,374.9,340.8,369.1,340.8z M376.4,366.9c-1.1,3.3-3.5,5.1-7.3,5.1c-3.8,0-6.2-1.8-7.2-5.1c-0.4-1.3-0.8-3.5-0.8-8.4
			c0-4.9,0.4-7.2,0.8-8.4c1.1-3.3,3.5-5.1,7.2-5.1c3.8,0,6.2,1.8,7.3,5.1c0.4,1.3,0.8,3.5,0.8,8.4
			C377.2,363.5,376.8,365.7,376.4,366.9z M405.8,360.6c4.1-1.3,6.7-4.7,6.7-9.3c0-5.9-4.3-9.9-10.7-9.9h-12.4
			c-0.3,0-0.5,0.2-0.5,0.5v33.2c0,0.3,0.2,0.5,0.5,0.5h3.5c0.3,0,0.5-0.2,0.5-0.5v-13.7c0-0.2,0.1-0.3,0.3-0.3h7.5l6.8,14
			c0.2,0.4,0.3,0.5,0.7,0.5h4c0.4,0,0.5-0.3,0.3-0.6L405.8,360.6z M393.7,357c-0.2,0-0.3-0.1-0.3-0.3v-10.8c0-0.2,0.1-0.3,0.3-0.3h8
			c4,0,6.3,2.1,6.3,5.7s-2.4,5.7-6.3,5.7H393.7z M455.4,357.5h-10.9c-0.3,0-0.5,0.2-0.5,0.5v2.9c0,0.3,0.2,0.5,0.5,0.5h6.6
			c0.2,0,0.3,0.1,0.3,0.3c0,2.6-0.3,4.2-0.7,5.4c-1.1,3.2-3.9,4.9-7.3,4.9c-3.9,0-6.3-1.8-7.4-5.1c-0.5-1.3-0.7-3.2-0.7-8.4
			c0-5.2,0.3-7.2,0.7-8.4c1.1-3.3,3.5-5.1,7.4-5.1c3.6,0,5.8,1.5,7.5,4.5c0.2,0.3,0.4,0.4,0.7,0.3l3-1.5c0.3-0.2,0.3-0.4,0.2-0.7
			c-1.7-3.8-5.4-6.8-11.4-6.8c-5.8,0-10,2.7-11.7,8c-0.6,2-0.9,4-0.9,9.7s0.3,7.7,0.9,9.7c1.7,5.3,5.9,8,11.7,8
			c5.7,0,10-2.9,11.6-8.1c0.5-1.7,0.9-4.5,0.9-7.6V358C455.9,357.7,455.7,357.5,455.4,357.5z M474.5,340.8c-5.7,0-9.9,2.7-11.6,8
			c-0.7,2-0.9,4-0.9,9.7s0.3,7.7,0.9,9.7c1.8,5.3,5.9,8,11.6,8c5.8,0,9.9-2.7,11.7-8c0.7-2,0.9-4,0.9-9.7s-0.3-7.7-0.9-9.7
			C484.4,343.6,480.3,340.8,474.5,340.8z M481.8,366.9c-1.1,3.3-3.5,5.1-7.3,5.1c-3.8,0-6.2-1.8-7.2-5.1c-0.4-1.3-0.8-3.5-0.8-8.4
			c0-4.9,0.4-7.2,0.8-8.4c1.1-3.3,3.5-5.1,7.2-5.1c3.8,0,6.2,1.8,7.3,5.1c0.4,1.3,0.8,3.5,0.8,8.4
			C482.5,363.5,482.2,365.7,481.8,366.9z M516.6,341.4h-3.5c-0.4,0-0.6,0.2-0.7,0.5l-8.5,26.4H504l-8.8-26.4
			c-0.1-0.4-0.3-0.5-0.7-0.5h-3.4c-0.3,0-0.5,0.2-0.4,0.6l11.1,33.1c0.1,0.3,0.3,0.5,0.6,0.5h3c0.3,0,0.5-0.2,0.6-0.5l11-33.1
			C517.1,341.6,516.9,341.4,516.6,341.4z M543.3,341.4h-20.6c-0.3,0-0.5,0.2-0.5,0.5v33.2c0,0.3,0.2,0.5,0.5,0.5h20.6
			c0.3,0,0.5-0.2,0.5-0.5V372c0-0.3-0.2-0.5-0.5-0.5H527c-0.2,0-0.3-0.1-0.3-0.3v-10.4c0-0.2,0.1-0.3,0.3-0.3h13.8
			c0.3,0,0.5-0.2,0.5-0.5v-3.2c0-0.3-0.2-0.5-0.5-0.5H527c-0.2,0-0.3-0.1-0.3-0.3v-10.1c0-0.2,0.1-0.3,0.3-0.3h16.3
			c0.3,0,0.5-0.2,0.5-0.5v-3.2C543.8,341.6,543.6,341.4,543.3,341.4z M567.4,360.6c4.1-1.3,6.7-4.7,6.7-9.3c0-5.9-4.3-9.9-10.7-9.9
			H551c-0.3,0-0.5,0.2-0.5,0.5v33.2c0,0.3,0.2,0.5,0.5,0.5h3.5c0.3,0,0.5-0.2,0.5-0.5v-13.7c0-0.2,0.1-0.3,0.3-0.3h7.5l6.8,14
			c0.2,0.4,0.3,0.5,0.7,0.5h4c0.4,0,0.5-0.3,0.3-0.6L567.4,360.6z M555.3,357c-0.2,0-0.3-0.1-0.3-0.3v-10.8c0-0.2,0.1-0.3,0.3-0.3h8
			c4,0,6.3,2.1,6.3,5.7s-2.4,5.7-6.3,5.7H555.3z M605.5,341.4h-3.2c-0.3,0-0.5,0.2-0.5,0.5v25.7h-0.2l-15.5-25.7
			c-0.2-0.4-0.5-0.5-0.9-0.5H582c-0.3,0-0.5,0.2-0.5,0.5v33.2c0,0.3,0.2,0.5,0.5,0.5h3.2c0.3,0,0.5-0.2,0.5-0.5v-25.6h0.2l15.5,25.6
			c0.2,0.4,0.5,0.5,0.9,0.5h3.2c0.3,0,0.5-0.2,0.5-0.5v-33.2C606,341.6,605.8,341.4,605.5,341.4z M625.8,340.8
			c-5.7,0-9.9,2.7-11.6,8c-0.7,2-0.9,4-0.9,9.7s0.3,7.7,0.9,9.7c1.8,5.3,5.9,8,11.6,8c5.8,0,9.9-2.7,11.7-8c0.7-2,0.9-4,0.9-9.7
			s-0.3-7.7-0.9-9.7C635.7,343.6,631.5,340.8,625.8,340.8z M633,366.9c-1.1,3.3-3.5,5.1-7.3,5.1c-3.8,0-6.2-1.8-7.2-5.1
			c-0.4-1.3-0.8-3.5-0.8-8.4c0-4.9,0.4-7.2,0.8-8.4c1.1-3.3,3.5-5.1,7.2-5.1c3.8,0,6.2,1.8,7.3,5.1c0.4,1.3,0.8,3.5,0.8,8.4
			C633.8,363.5,633.4,365.7,633,366.9z M669.7,375l-7.3-14.5c4.1-1.3,6.7-4.7,6.7-9.3c0-5.9-4.3-9.9-10.7-9.9h-12.4
			c-0.3,0-0.5,0.2-0.5,0.5v33.2c0,0.3,0.2,0.5,0.5,0.5h3.5c0.3,0,0.5-0.2,0.5-0.5v-13.7c0-0.2,0.1-0.3,0.3-0.3h7.5l6.8,14
			c0.2,0.4,0.3,0.5,0.7,0.5h4C669.8,375.6,669.9,375.3,669.7,375z M650.3,357c-0.2,0-0.3-0.1-0.3-0.3v-10.8c0-0.2,0.1-0.3,0.3-0.3h8
			c4,0,6.3,2.1,6.3,5.7s-2.4,5.7-6.3,5.7H650.3z"/>
	</g>
</g>
<g id="Gavin">
	<g>
		<path class="st3" d="M401.3,82.1h-29.2c-0.8,0-1.3,0.5-1.3,1.3v10.4c0,0.8,0.5,1.3,1.3,1.3h14.5c0.5,0,0.8,0.3,0.8,0.8
			c0,5.1-0.5,8.7-1.4,11.4c-2.3,7.2-9,11.1-16.8,11.1c-9,0-14.2-4.4-16.6-11.6c-1-3.3-1.6-7.8-1.6-20.3c0-12.6,0.5-17,1.6-20.3
			c2.5-7.2,7.7-11.6,16.6-11.6c8.6,0,13.9,3.9,17.8,10.9c0.3,0.5,0.9,0.9,1.7,0.7l10.9-4.8c0.6-0.4,0.8-1.2,0.5-1.8
			c-3.6-9.9-14.3-18.7-30.8-18.7c-15.6,0-27,7.3-31.6,21.3c-1.8,5.5-2.3,10.4-2.3,24.3c0,13.9,0.5,18.9,2.3,24.3
			c4.5,14,16,21.3,31.6,21.3c15.2,0,26.9-7.9,31.2-21.7c1.4-4.4,2.1-12.1,2.1-19.4v-7.7C402.6,82.6,402.1,82.1,401.3,82.1z
			 M454.5,43.6c-0.3-0.8-0.8-1.3-1.7-1.3h-11.9c-0.9,0-1.4,0.5-1.7,1.3l-30.3,85.8c-0.3,0.8,0,1.3,0.9,1.3h12.6
			c0.9,0,1.4-0.4,1.7-1.3l5.8-17.2h33.2l5.8,17.2c0.3,0.9,0.8,1.3,1.7,1.3h12.7c0.9,0,1.2-0.5,0.9-1.3L454.5,43.6z M434.7,98.6
			l11.8-34.3h0.4l11.7,34.3H434.7z M550.2,42.3h-12.6c-0.9,0-1.4,0.4-1.7,1.3l-19,62.7h-0.4l-19.7-62.7c-0.3-0.9-0.8-1.3-1.7-1.3
			h-12.6c-0.8,0-1.3,0.5-1,1.3l27.9,85.8c0.3,0.8,0.8,1.3,1.6,1.3h10.6c0.8,0,1.3-0.5,1.6-1.3l28.1-85.8
			C551.5,42.9,551,42.3,550.2,42.3z M576.9,42.3h-12.7c-0.8,0-1.3,0.5-1.3,1.3v85.8c0,0.8,0.5,1.3,1.3,1.3h12.7
			c0.8,0,1.3-0.5,1.3-1.3V43.6C578.2,42.9,577.6,42.3,576.9,42.3z M662.2,42.3h-11.3c-0.8,0-1.3,0.5-1.3,1.3v61h-0.5l-36-61
			c-0.5-0.9-1.2-1.3-2.2-1.3h-11.9c-0.8,0-1.3,0.5-1.3,1.3v85.8c0,0.8,0.5,1.3,1.3,1.3h11.3c0.8,0,1.3-0.5,1.3-1.3V68.6h0.5
			l36.1,60.8c0.5,0.9,1.2,1.3,2.2,1.3h11.8c0.8,0,1.3-0.5,1.3-1.3V43.6C663.5,42.9,663,42.3,662.2,42.3z"/>
	</g>
</g>
</svg>
